%TF.GenerationSoftware,KiCad,Pcbnew,7.0.7*%
%TF.CreationDate,2023-08-25T02:36:16+09:00*%
%TF.ProjectId,PrecisionFightingBoard,50726563-6973-4696-9f6e-466967687469,rev?*%
%TF.SameCoordinates,Original*%
%TF.FileFunction,Copper,L1,Top*%
%TF.FilePolarity,Positive*%
%FSLAX46Y46*%
G04 Gerber Fmt 4.6, Leading zero omitted, Abs format (unit mm)*
G04 Created by KiCad (PCBNEW 7.0.7) date 2023-08-25 02:36:16*
%MOMM*%
%LPD*%
G01*
G04 APERTURE LIST*
G04 Aperture macros list*
%AMRoundRect*
0 Rectangle with rounded corners*
0 $1 Rounding radius*
0 $2 $3 $4 $5 $6 $7 $8 $9 X,Y pos of 4 corners*
0 Add a 4 corners polygon primitive as box body*
4,1,4,$2,$3,$4,$5,$6,$7,$8,$9,$2,$3,0*
0 Add four circle primitives for the rounded corners*
1,1,$1+$1,$2,$3*
1,1,$1+$1,$4,$5*
1,1,$1+$1,$6,$7*
1,1,$1+$1,$8,$9*
0 Add four rect primitives between the rounded corners*
20,1,$1+$1,$2,$3,$4,$5,0*
20,1,$1+$1,$4,$5,$6,$7,0*
20,1,$1+$1,$6,$7,$8,$9,0*
20,1,$1+$1,$8,$9,$2,$3,0*%
G04 Aperture macros list end*
%TA.AperFunction,ComponentPad*%
%ADD10R,1.700000X1.700000*%
%TD*%
%TA.AperFunction,ComponentPad*%
%ADD11O,1.700000X1.700000*%
%TD*%
%TA.AperFunction,ComponentPad*%
%ADD12R,2.300000X2.300000*%
%TD*%
%TA.AperFunction,ComponentPad*%
%ADD13C,2.300000*%
%TD*%
%TA.AperFunction,ComponentPad*%
%ADD14C,1.600000*%
%TD*%
%TA.AperFunction,ComponentPad*%
%ADD15RoundRect,0.250000X-0.625000X0.350000X-0.625000X-0.350000X0.625000X-0.350000X0.625000X0.350000X0*%
%TD*%
%TA.AperFunction,ComponentPad*%
%ADD16O,1.750000X1.200000*%
%TD*%
%TA.AperFunction,Conductor*%
%ADD17C,0.250000*%
%TD*%
G04 APERTURE END LIST*
D10*
%TO.P,J4,1,Pin_1*%
%TO.N,unconnected-(J4-Pin_1-Pad1)*%
X160020000Y-73660000D03*
D11*
%TO.P,J4,2,Pin_2*%
%TO.N,unconnected-(J4-Pin_2-Pad2)*%
X157480000Y-73660000D03*
%TO.P,J4,3,Pin_3*%
%TO.N,unconnected-(J4-Pin_3-Pad3)*%
X154940000Y-73660000D03*
%TO.P,J4,4,Pin_4*%
%TO.N,unconnected-(J4-Pin_4-Pad4)*%
X152400000Y-73660000D03*
%TO.P,J4,5,Pin_5*%
%TO.N,unconnected-(J4-Pin_5-Pad5)*%
X149860000Y-73660000D03*
%TO.P,J4,6,Pin_6*%
%TO.N,unconnected-(J4-Pin_6-Pad6)*%
X147320000Y-73660000D03*
%TO.P,J4,7,Pin_7*%
%TO.N,unconnected-(J4-Pin_7-Pad7)*%
X144780000Y-73660000D03*
%TO.P,J4,8,Pin_8*%
%TO.N,/R3*%
X142240000Y-73660000D03*
%TO.P,J4,9,Pin_9*%
%TO.N,/L3*%
X139700000Y-73660000D03*
%TO.P,J4,10,Pin_10*%
%TO.N,unconnected-(J4-Pin_10-Pad10)*%
X137160000Y-73660000D03*
%TO.P,J4,11,Pin_11*%
%TO.N,unconnected-(J4-Pin_11-Pad11)*%
X134620000Y-73660000D03*
%TO.P,J4,12,Pin_12*%
%TO.N,/LT*%
X132080000Y-73660000D03*
%TO.P,J4,13,Pin_13*%
%TO.N,/RT*%
X129540000Y-73660000D03*
%TO.P,J4,14,Pin_14*%
%TO.N,unconnected-(J4-Pin_14-Pad14)*%
X127000000Y-73660000D03*
%TD*%
D12*
%TO.P,J8,1,Pin_1*%
%TO.N,/GND*%
X134665600Y-48209200D03*
D13*
%TO.P,J8,2,Pin_2*%
X131165600Y-48209200D03*
%TO.P,J8,3,Pin_3*%
%TO.N,/HOME*%
X127665600Y-48209200D03*
%TO.P,J8,4,Pin_4*%
%TO.N,/BACK*%
X124165600Y-48209200D03*
%TO.P,J8,5,Pin_5*%
%TO.N,/START*%
X120665600Y-48209200D03*
%TD*%
D14*
%TO.P,U1,1,GND*%
%TO.N,/GND*%
X160020000Y-58420000D03*
%TO.P,U1,2,0_RX1_CRX2_CS1*%
%TO.N,/UP*%
X157480000Y-58420000D03*
%TO.P,U1,3,1_TX1_CTX2_MISO1*%
%TO.N,/DOWN*%
X154940000Y-58420000D03*
%TO.P,U1,4,2_OUT2*%
%TO.N,/LEFT*%
X152400000Y-58420000D03*
%TO.P,U1,5,3_LRCLK2*%
%TO.N,/RIGHT*%
X149860000Y-58420000D03*
%TO.P,U1,6,4_BCLK2*%
%TO.N,/HOME*%
X147320000Y-58420000D03*
%TO.P,U1,7,5_IN2*%
%TO.N,/BACK*%
X144780000Y-58420000D03*
%TO.P,U1,8,6_OUT1D*%
%TO.N,/START*%
X142240000Y-58420000D03*
%TO.P,U1,9,7_RX2_OUT1A*%
%TO.N,/Y*%
X139700000Y-58420000D03*
%TO.P,U1,10,8_TX2_IN1*%
%TO.N,/X*%
X137160000Y-58420000D03*
%TO.P,U1,11,9_OUT1C*%
%TO.N,/RB*%
X134620000Y-58420000D03*
%TO.P,U1,12,10_CS_MQSR*%
%TO.N,/LB*%
X132080000Y-58420000D03*
%TO.P,U1,13,11_MOSI_CTX1*%
%TO.N,/A*%
X129540000Y-58420000D03*
%TO.P,U1,14,12_MISO_MQSL*%
%TO.N,/B*%
X127000000Y-58420000D03*
%TO.P,U1,15,VBAT*%
%TO.N,unconnected-(U1-VBAT-Pad15)*%
X127000000Y-60960000D03*
%TO.P,U1,16,3V3*%
%TO.N,unconnected-(U1-3V3-Pad16)*%
X127000000Y-63500000D03*
%TO.P,U1,17,GND*%
%TO.N,unconnected-(U1-GND-Pad17)*%
X127000000Y-66040000D03*
%TO.P,U1,18,PROGRAM*%
%TO.N,unconnected-(U1-PROGRAM-Pad18)*%
X127000000Y-68580000D03*
%TO.P,U1,19,ON_OFF*%
%TO.N,unconnected-(U1-ON_OFF-Pad19)*%
X127000000Y-71120000D03*
%TO.P,U1,20,13_SCK_CRX1_LED*%
%TO.N,unconnected-(U1-13_SCK_CRX1_LED-Pad20)*%
X127000000Y-73660000D03*
%TO.P,U1,21,14_A0_TX3_SPDIF_OUT*%
%TO.N,/RT*%
X129540000Y-73660000D03*
%TO.P,U1,22,15_A1_RX3_SPDIF_IN*%
%TO.N,/LT*%
X132080000Y-73660000D03*
%TO.P,U1,23,16_A2_RX4_SCL1*%
%TO.N,unconnected-(U1-16_A2_RX4_SCL1-Pad23)*%
X134620000Y-73660000D03*
%TO.P,U1,24,17_A3_TX4_SDA1*%
%TO.N,unconnected-(U1-17_A3_TX4_SDA1-Pad24)*%
X137160000Y-73660000D03*
%TO.P,U1,25,18_A4_SDA0*%
%TO.N,/L3*%
X139700000Y-73660000D03*
%TO.P,U1,26,19_A5_SCL0*%
%TO.N,/R3*%
X142240000Y-73660000D03*
%TO.P,U1,27,20_A6_TX5_LRCLK1*%
%TO.N,unconnected-(U1-20_A6_TX5_LRCLK1-Pad27)*%
X144780000Y-73660000D03*
%TO.P,U1,28,21_A7_RX5_BCLK1*%
%TO.N,unconnected-(U1-21_A7_RX5_BCLK1-Pad28)*%
X147320000Y-73660000D03*
%TO.P,U1,29,22_A8_CTX1*%
%TO.N,unconnected-(U1-22_A8_CTX1-Pad29)*%
X149860000Y-73660000D03*
%TO.P,U1,30,23_A9_CRX1_MCLK1*%
%TO.N,unconnected-(U1-23_A9_CRX1_MCLK1-Pad30)*%
X152400000Y-73660000D03*
%TO.P,U1,31,3V3*%
%TO.N,unconnected-(U1-3V3-Pad31)*%
X154940000Y-73660000D03*
%TO.P,U1,32,GND*%
%TO.N,/GND*%
X157480000Y-73660000D03*
%TO.P,U1,33,VIN*%
%TO.N,unconnected-(U1-VIN-Pad33)*%
X160020000Y-73660000D03*
%TO.P,U1,34,VUSB*%
%TO.N,unconnected-(U1-VUSB-Pad34)*%
X157480000Y-71120000D03*
%TO.P,U1,35,24_A10_TX6_SCL2*%
%TO.N,unconnected-(U1-24_A10_TX6_SCL2-Pad35)*%
X132080000Y-71120000D03*
%TO.P,U1,36,25_A11_RX6_SDA2*%
%TO.N,unconnected-(U1-25_A11_RX6_SDA2-Pad36)*%
X134620000Y-71120000D03*
%TO.P,U1,37,26_A12_MOSI1*%
%TO.N,unconnected-(U1-26_A12_MOSI1-Pad37)*%
X132080000Y-68580000D03*
%TO.P,U1,38,27_A13_SCK1*%
%TO.N,unconnected-(U1-27_A13_SCK1-Pad38)*%
X134620000Y-68580000D03*
%TO.P,U1,39,28_RX7*%
%TO.N,unconnected-(U1-28_RX7-Pad39)*%
X132080000Y-66040000D03*
%TO.P,U1,40,29_TX7*%
%TO.N,unconnected-(U1-29_TX7-Pad40)*%
X134620000Y-66040000D03*
%TO.P,U1,41,30_CRX3*%
%TO.N,unconnected-(U1-30_CRX3-Pad41)*%
X132080000Y-63500000D03*
%TO.P,U1,42,31_CTX3*%
%TO.N,unconnected-(U1-31_CTX3-Pad42)*%
X134620000Y-63500000D03*
%TO.P,U1,43,32_OUT1B*%
%TO.N,unconnected-(U1-32_OUT1B-Pad43)*%
X132080000Y-60960000D03*
%TO.P,U1,44,33_MCLK2*%
%TO.N,unconnected-(U1-33_MCLK2-Pad44)*%
X134620000Y-60960000D03*
%TD*%
D10*
%TO.P,J3,1,Pin_1*%
%TO.N,/GND*%
X160020000Y-58420000D03*
D11*
%TO.P,J3,2,Pin_2*%
%TO.N,/UP*%
X157480000Y-58420000D03*
%TO.P,J3,3,Pin_3*%
%TO.N,/DOWN*%
X154940000Y-58420000D03*
%TO.P,J3,4,Pin_4*%
%TO.N,/LEFT*%
X152400000Y-58420000D03*
%TO.P,J3,5,Pin_5*%
%TO.N,/RIGHT*%
X149860000Y-58420000D03*
%TO.P,J3,6,Pin_6*%
%TO.N,/HOME*%
X147320000Y-58420000D03*
%TO.P,J3,7,Pin_7*%
%TO.N,/BACK*%
X144780000Y-58420000D03*
%TO.P,J3,8,Pin_8*%
%TO.N,/START*%
X142240000Y-58420000D03*
%TO.P,J3,9,Pin_9*%
%TO.N,/X*%
X139700000Y-58420000D03*
%TO.P,J3,10,Pin_10*%
%TO.N,/Y*%
X137160000Y-58420000D03*
%TO.P,J3,11,Pin_11*%
%TO.N,/RB*%
X134620000Y-58420000D03*
%TO.P,J3,12,Pin_12*%
%TO.N,/LB*%
X132080000Y-58420000D03*
%TO.P,J3,13,Pin_13*%
%TO.N,/A*%
X129540000Y-58420000D03*
%TO.P,J3,14,Pin_14*%
%TO.N,/B*%
X127000000Y-58420000D03*
%TD*%
D12*
%TO.P,J10,1,Pin_1*%
%TO.N,/A*%
X98851600Y-48310800D03*
D13*
%TO.P,J10,2,Pin_2*%
%TO.N,/B*%
X95351600Y-48310800D03*
%TO.P,J10,3,Pin_3*%
%TO.N,/RT*%
X91851600Y-48310800D03*
%TO.P,J10,4,Pin_4*%
%TO.N,/LT*%
X88351600Y-48310800D03*
%TO.P,J10,5,Pin_5*%
%TO.N,/GND*%
X84851600Y-48310800D03*
%TD*%
D10*
%TO.P,J6,1,Pin_1*%
%TO.N,/UP*%
X106680000Y-81280000D03*
D11*
%TO.P,J6,2,Pin_2*%
%TO.N,/DOWN*%
X106680000Y-83820000D03*
%TO.P,J6,3,Pin_3*%
%TO.N,/RIGHT*%
X104140000Y-81280000D03*
%TO.P,J6,4,Pin_4*%
%TO.N,/LEFT*%
X104140000Y-83820000D03*
%TO.P,J6,5,Pin_5*%
%TO.N,/BACK*%
X101600000Y-81280000D03*
%TO.P,J6,6,Pin_6*%
%TO.N,/HOME*%
X101600000Y-83820000D03*
%TO.P,J6,7,Pin_7*%
%TO.N,/START*%
X99060000Y-81280000D03*
%TO.P,J6,8,Pin_8*%
%TO.N,/X*%
X99060000Y-83820000D03*
%TO.P,J6,9,Pin_9*%
%TO.N,/Y*%
X96520000Y-81280000D03*
%TO.P,J6,10,Pin_10*%
%TO.N,/RB*%
X96520000Y-83820000D03*
%TO.P,J6,11,Pin_11*%
%TO.N,/LB*%
X93980000Y-81280000D03*
%TO.P,J6,12,Pin_12*%
%TO.N,/GND*%
X93980000Y-83820000D03*
%TO.P,J6,13,Pin_13*%
%TO.N,/A*%
X91440000Y-81280000D03*
%TO.P,J6,14,Pin_14*%
%TO.N,/B*%
X91440000Y-83820000D03*
%TO.P,J6,15,Pin_15*%
%TO.N,/RT*%
X88900000Y-81280000D03*
%TO.P,J6,16,Pin_16*%
%TO.N,/LT*%
X88900000Y-83820000D03*
%TO.P,J6,17,Pin_17*%
%TO.N,/GND*%
X86360000Y-81280000D03*
%TO.P,J6,18,Pin_18*%
X86360000Y-83820000D03*
%TO.P,J6,19,Pin_19*%
%TO.N,/5V*%
X83820000Y-81280000D03*
%TO.P,J6,20,Pin_20*%
X83820000Y-83820000D03*
%TD*%
D12*
%TO.P,J9,1,Pin_1*%
%TO.N,/X*%
X116840000Y-48260000D03*
D13*
%TO.P,J9,2,Pin_2*%
%TO.N,/Y*%
X113340000Y-48260000D03*
%TO.P,J9,3,Pin_3*%
%TO.N,/RB*%
X109840000Y-48260000D03*
%TO.P,J9,4,Pin_4*%
%TO.N,/LB*%
X106340000Y-48260000D03*
%TO.P,J9,5,Pin_5*%
%TO.N,/GND*%
X102840000Y-48260000D03*
%TD*%
D12*
%TO.P,J2,1,Pin_1*%
%TO.N,unconnected-(J2-Pin_1-Pad1)*%
X133660000Y-81280000D03*
D13*
%TO.P,J2,2,Pin_2*%
%TO.N,/L3*%
X137160000Y-81280000D03*
%TO.P,J2,3,Pin_3*%
%TO.N,/R3*%
X140660000Y-81280000D03*
%TO.P,J2,4,Pin_4*%
%TO.N,/GND*%
X144160000Y-81280000D03*
%TD*%
D15*
%TO.P,J1,1,Pin_1*%
%TO.N,unconnected-(J1-Pin_1-Pad1)*%
X73660000Y-59500000D03*
D16*
%TO.P,J1,2,Pin_2*%
%TO.N,/L3*%
X73660000Y-61500000D03*
%TO.P,J1,3,Pin_3*%
%TO.N,/R3*%
X73660000Y-63500000D03*
%TO.P,J1,4,Pin_4*%
%TO.N,/GND*%
X73660000Y-65500000D03*
%TD*%
D12*
%TO.P,J7,1,Pin_1*%
%TO.N,/5V*%
X152400000Y-48260000D03*
D13*
%TO.P,J7,2,Pin_2*%
%TO.N,/DOWN*%
X148900000Y-48260000D03*
%TO.P,J7,3,Pin_3*%
%TO.N,/UP*%
X145400000Y-48260000D03*
%TO.P,J7,4,Pin_4*%
%TO.N,/LEFT*%
X141900000Y-48260000D03*
%TO.P,J7,5,Pin_5*%
%TO.N,/RIGHT*%
X138400000Y-48260000D03*
%TD*%
D17*
%TO.N,/L3*%
X139700000Y-73660000D02*
X138405000Y-72365000D01*
X73660000Y-61500000D02*
X73660000Y-62426900D01*
X138405000Y-72365000D02*
X84525000Y-72365000D01*
X74586900Y-62426900D02*
X73660000Y-62426900D01*
X84525000Y-72365000D02*
X74586900Y-62426900D01*
%TO.N,/R3*%
X124478700Y-69993100D02*
X138573100Y-69993100D01*
X72406900Y-62246900D02*
X72406900Y-61139400D01*
X73660000Y-63500000D02*
X72406900Y-62246900D01*
X114986100Y-60500500D02*
X124478700Y-69993100D01*
X138573100Y-69993100D02*
X142240000Y-73660000D01*
X73045800Y-60500500D02*
X114986100Y-60500500D01*
X72406900Y-61139400D02*
X73045800Y-60500500D01*
%TO.N,/GND*%
X101346200Y-46766200D02*
X86553800Y-46766200D01*
X86360000Y-82606500D02*
X91955400Y-82606500D01*
X92803100Y-83454200D02*
X92803100Y-83820000D01*
X93980000Y-83820000D02*
X92803100Y-83820000D01*
X129017900Y-46777900D02*
X104322100Y-46777900D01*
X134000000Y-48260000D02*
X130500000Y-48260000D01*
X102840000Y-48260000D02*
X101346200Y-46766200D01*
X104322100Y-46777900D02*
X102840000Y-48260000D01*
X86360000Y-83820000D02*
X86360000Y-82606500D01*
X91955400Y-82606500D02*
X92803100Y-83454200D01*
X86553800Y-46766200D02*
X85060000Y-48260000D01*
X86360000Y-82606500D02*
X86360000Y-81280000D01*
X130500000Y-48260000D02*
X129017900Y-46777900D01*
%TO.N,/UP*%
X150123500Y-51063500D02*
X148203500Y-51063500D01*
X157480000Y-58420000D02*
X150123500Y-51063500D01*
X148203500Y-51063500D02*
X145400000Y-48260000D01*
%TO.N,/BACK*%
X123500000Y-48260000D02*
X124865100Y-48260000D01*
X136548800Y-50188800D02*
X144780000Y-58420000D01*
X124865100Y-48260000D02*
X126793900Y-50188800D01*
X126793900Y-50188800D02*
X136548800Y-50188800D01*
%TO.N,/HOME*%
X138636900Y-49736900D02*
X128476900Y-49736900D01*
X147320000Y-58420000D02*
X138636900Y-49736900D01*
X128476900Y-49736900D02*
X127000000Y-48260000D01*
%TO.N,/START*%
X121476900Y-49736900D02*
X125702900Y-49736900D01*
X135162400Y-51342400D02*
X142240000Y-58420000D01*
X125702900Y-49736900D02*
X127308400Y-51342400D01*
X127308400Y-51342400D02*
X135162400Y-51342400D01*
X120000000Y-48260000D02*
X121476900Y-49736900D01*
%TO.N,/RB*%
X133746900Y-58420000D02*
X134620000Y-58420000D01*
X125517200Y-50190300D02*
X133746900Y-58420000D01*
X109840000Y-48260000D02*
X111770300Y-50190300D01*
X111770300Y-50190300D02*
X125517200Y-50190300D01*
%TO.N,/LB*%
X106340000Y-48260000D02*
X108722200Y-50642200D01*
X124302200Y-50642200D02*
X132080000Y-58420000D01*
X108722200Y-50642200D02*
X124302200Y-50642200D01*
%TO.N,/A*%
X99060000Y-48260000D02*
X100536900Y-48260000D01*
X122695100Y-51575100D02*
X129540000Y-58420000D01*
X100536900Y-48260000D02*
X103852000Y-51575100D01*
X103852000Y-51575100D02*
X122695100Y-51575100D01*
%TO.N,/B*%
X105720000Y-58420000D02*
X95560000Y-48260000D01*
X127000000Y-58420000D02*
X105720000Y-58420000D01*
%TO.N,/RT*%
X123135700Y-80064300D02*
X90926800Y-80064300D01*
X90076900Y-80914200D02*
X90076900Y-81280000D01*
X88900000Y-81280000D02*
X90076900Y-81280000D01*
X90926800Y-80064300D02*
X90076900Y-80914200D01*
X129540000Y-73660000D02*
X123135700Y-80064300D01*
%TO.N,/LT*%
X90896400Y-85005300D02*
X90076900Y-84185800D01*
X88900000Y-83820000D02*
X90076900Y-83820000D01*
X90076900Y-84185800D02*
X90076900Y-83820000D01*
X132080000Y-73660000D02*
X120734700Y-85005300D01*
X120734700Y-85005300D02*
X90896400Y-85005300D01*
%TD*%
M02*
