%TF.GenerationSoftware,KiCad,Pcbnew,7.0.7*%
%TF.CreationDate,2023-08-25T02:36:16+09:00*%
%TF.ProjectId,PrecisionFightingBoard,50726563-6973-4696-9f6e-466967687469,rev?*%
%TF.SameCoordinates,Original*%
%TF.FileFunction,Copper,L2,Bot*%
%TF.FilePolarity,Positive*%
%FSLAX46Y46*%
G04 Gerber Fmt 4.6, Leading zero omitted, Abs format (unit mm)*
G04 Created by KiCad (PCBNEW 7.0.7) date 2023-08-25 02:36:16*
%MOMM*%
%LPD*%
G01*
G04 APERTURE LIST*
G04 Aperture macros list*
%AMRoundRect*
0 Rectangle with rounded corners*
0 $1 Rounding radius*
0 $2 $3 $4 $5 $6 $7 $8 $9 X,Y pos of 4 corners*
0 Add a 4 corners polygon primitive as box body*
4,1,4,$2,$3,$4,$5,$6,$7,$8,$9,$2,$3,0*
0 Add four circle primitives for the rounded corners*
1,1,$1+$1,$2,$3*
1,1,$1+$1,$4,$5*
1,1,$1+$1,$6,$7*
1,1,$1+$1,$8,$9*
0 Add four rect primitives between the rounded corners*
20,1,$1+$1,$2,$3,$4,$5,0*
20,1,$1+$1,$4,$5,$6,$7,0*
20,1,$1+$1,$6,$7,$8,$9,0*
20,1,$1+$1,$8,$9,$2,$3,0*%
G04 Aperture macros list end*
%TA.AperFunction,ComponentPad*%
%ADD10R,1.700000X1.700000*%
%TD*%
%TA.AperFunction,ComponentPad*%
%ADD11O,1.700000X1.700000*%
%TD*%
%TA.AperFunction,ComponentPad*%
%ADD12R,2.300000X2.300000*%
%TD*%
%TA.AperFunction,ComponentPad*%
%ADD13C,2.300000*%
%TD*%
%TA.AperFunction,ComponentPad*%
%ADD14C,1.600000*%
%TD*%
%TA.AperFunction,ComponentPad*%
%ADD15RoundRect,0.250000X-0.625000X0.350000X-0.625000X-0.350000X0.625000X-0.350000X0.625000X0.350000X0*%
%TD*%
%TA.AperFunction,ComponentPad*%
%ADD16O,1.750000X1.200000*%
%TD*%
%TA.AperFunction,Conductor*%
%ADD17C,0.250000*%
%TD*%
G04 APERTURE END LIST*
D10*
%TO.P,J4,1,Pin_1*%
%TO.N,unconnected-(J4-Pin_1-Pad1)*%
X160020000Y-73660000D03*
D11*
%TO.P,J4,2,Pin_2*%
%TO.N,unconnected-(J4-Pin_2-Pad2)*%
X157480000Y-73660000D03*
%TO.P,J4,3,Pin_3*%
%TO.N,unconnected-(J4-Pin_3-Pad3)*%
X154940000Y-73660000D03*
%TO.P,J4,4,Pin_4*%
%TO.N,unconnected-(J4-Pin_4-Pad4)*%
X152400000Y-73660000D03*
%TO.P,J4,5,Pin_5*%
%TO.N,unconnected-(J4-Pin_5-Pad5)*%
X149860000Y-73660000D03*
%TO.P,J4,6,Pin_6*%
%TO.N,unconnected-(J4-Pin_6-Pad6)*%
X147320000Y-73660000D03*
%TO.P,J4,7,Pin_7*%
%TO.N,unconnected-(J4-Pin_7-Pad7)*%
X144780000Y-73660000D03*
%TO.P,J4,8,Pin_8*%
%TO.N,/R3*%
X142240000Y-73660000D03*
%TO.P,J4,9,Pin_9*%
%TO.N,/L3*%
X139700000Y-73660000D03*
%TO.P,J4,10,Pin_10*%
%TO.N,unconnected-(J4-Pin_10-Pad10)*%
X137160000Y-73660000D03*
%TO.P,J4,11,Pin_11*%
%TO.N,unconnected-(J4-Pin_11-Pad11)*%
X134620000Y-73660000D03*
%TO.P,J4,12,Pin_12*%
%TO.N,/LT*%
X132080000Y-73660000D03*
%TO.P,J4,13,Pin_13*%
%TO.N,/RT*%
X129540000Y-73660000D03*
%TO.P,J4,14,Pin_14*%
%TO.N,unconnected-(J4-Pin_14-Pad14)*%
X127000000Y-73660000D03*
%TD*%
D12*
%TO.P,J8,1,Pin_1*%
%TO.N,/GND*%
X134665600Y-48209200D03*
D13*
%TO.P,J8,2,Pin_2*%
X131165600Y-48209200D03*
%TO.P,J8,3,Pin_3*%
%TO.N,/HOME*%
X127665600Y-48209200D03*
%TO.P,J8,4,Pin_4*%
%TO.N,/BACK*%
X124165600Y-48209200D03*
%TO.P,J8,5,Pin_5*%
%TO.N,/START*%
X120665600Y-48209200D03*
%TD*%
D14*
%TO.P,U1,1,GND*%
%TO.N,/GND*%
X160020000Y-58420000D03*
%TO.P,U1,2,0_RX1_CRX2_CS1*%
%TO.N,/UP*%
X157480000Y-58420000D03*
%TO.P,U1,3,1_TX1_CTX2_MISO1*%
%TO.N,/DOWN*%
X154940000Y-58420000D03*
%TO.P,U1,4,2_OUT2*%
%TO.N,/LEFT*%
X152400000Y-58420000D03*
%TO.P,U1,5,3_LRCLK2*%
%TO.N,/RIGHT*%
X149860000Y-58420000D03*
%TO.P,U1,6,4_BCLK2*%
%TO.N,/HOME*%
X147320000Y-58420000D03*
%TO.P,U1,7,5_IN2*%
%TO.N,/BACK*%
X144780000Y-58420000D03*
%TO.P,U1,8,6_OUT1D*%
%TO.N,/START*%
X142240000Y-58420000D03*
%TO.P,U1,9,7_RX2_OUT1A*%
%TO.N,/Y*%
X139700000Y-58420000D03*
%TO.P,U1,10,8_TX2_IN1*%
%TO.N,/X*%
X137160000Y-58420000D03*
%TO.P,U1,11,9_OUT1C*%
%TO.N,/RB*%
X134620000Y-58420000D03*
%TO.P,U1,12,10_CS_MQSR*%
%TO.N,/LB*%
X132080000Y-58420000D03*
%TO.P,U1,13,11_MOSI_CTX1*%
%TO.N,/A*%
X129540000Y-58420000D03*
%TO.P,U1,14,12_MISO_MQSL*%
%TO.N,/B*%
X127000000Y-58420000D03*
%TO.P,U1,15,VBAT*%
%TO.N,unconnected-(U1-VBAT-Pad15)*%
X127000000Y-60960000D03*
%TO.P,U1,16,3V3*%
%TO.N,unconnected-(U1-3V3-Pad16)*%
X127000000Y-63500000D03*
%TO.P,U1,17,GND*%
%TO.N,unconnected-(U1-GND-Pad17)*%
X127000000Y-66040000D03*
%TO.P,U1,18,PROGRAM*%
%TO.N,unconnected-(U1-PROGRAM-Pad18)*%
X127000000Y-68580000D03*
%TO.P,U1,19,ON_OFF*%
%TO.N,unconnected-(U1-ON_OFF-Pad19)*%
X127000000Y-71120000D03*
%TO.P,U1,20,13_SCK_CRX1_LED*%
%TO.N,unconnected-(U1-13_SCK_CRX1_LED-Pad20)*%
X127000000Y-73660000D03*
%TO.P,U1,21,14_A0_TX3_SPDIF_OUT*%
%TO.N,/RT*%
X129540000Y-73660000D03*
%TO.P,U1,22,15_A1_RX3_SPDIF_IN*%
%TO.N,/LT*%
X132080000Y-73660000D03*
%TO.P,U1,23,16_A2_RX4_SCL1*%
%TO.N,unconnected-(U1-16_A2_RX4_SCL1-Pad23)*%
X134620000Y-73660000D03*
%TO.P,U1,24,17_A3_TX4_SDA1*%
%TO.N,unconnected-(U1-17_A3_TX4_SDA1-Pad24)*%
X137160000Y-73660000D03*
%TO.P,U1,25,18_A4_SDA0*%
%TO.N,/L3*%
X139700000Y-73660000D03*
%TO.P,U1,26,19_A5_SCL0*%
%TO.N,/R3*%
X142240000Y-73660000D03*
%TO.P,U1,27,20_A6_TX5_LRCLK1*%
%TO.N,unconnected-(U1-20_A6_TX5_LRCLK1-Pad27)*%
X144780000Y-73660000D03*
%TO.P,U1,28,21_A7_RX5_BCLK1*%
%TO.N,unconnected-(U1-21_A7_RX5_BCLK1-Pad28)*%
X147320000Y-73660000D03*
%TO.P,U1,29,22_A8_CTX1*%
%TO.N,unconnected-(U1-22_A8_CTX1-Pad29)*%
X149860000Y-73660000D03*
%TO.P,U1,30,23_A9_CRX1_MCLK1*%
%TO.N,unconnected-(U1-23_A9_CRX1_MCLK1-Pad30)*%
X152400000Y-73660000D03*
%TO.P,U1,31,3V3*%
%TO.N,unconnected-(U1-3V3-Pad31)*%
X154940000Y-73660000D03*
%TO.P,U1,32,GND*%
%TO.N,/GND*%
X157480000Y-73660000D03*
%TO.P,U1,33,VIN*%
%TO.N,unconnected-(U1-VIN-Pad33)*%
X160020000Y-73660000D03*
%TO.P,U1,34,VUSB*%
%TO.N,unconnected-(U1-VUSB-Pad34)*%
X157480000Y-71120000D03*
%TO.P,U1,35,24_A10_TX6_SCL2*%
%TO.N,unconnected-(U1-24_A10_TX6_SCL2-Pad35)*%
X132080000Y-71120000D03*
%TO.P,U1,36,25_A11_RX6_SDA2*%
%TO.N,unconnected-(U1-25_A11_RX6_SDA2-Pad36)*%
X134620000Y-71120000D03*
%TO.P,U1,37,26_A12_MOSI1*%
%TO.N,unconnected-(U1-26_A12_MOSI1-Pad37)*%
X132080000Y-68580000D03*
%TO.P,U1,38,27_A13_SCK1*%
%TO.N,unconnected-(U1-27_A13_SCK1-Pad38)*%
X134620000Y-68580000D03*
%TO.P,U1,39,28_RX7*%
%TO.N,unconnected-(U1-28_RX7-Pad39)*%
X132080000Y-66040000D03*
%TO.P,U1,40,29_TX7*%
%TO.N,unconnected-(U1-29_TX7-Pad40)*%
X134620000Y-66040000D03*
%TO.P,U1,41,30_CRX3*%
%TO.N,unconnected-(U1-30_CRX3-Pad41)*%
X132080000Y-63500000D03*
%TO.P,U1,42,31_CTX3*%
%TO.N,unconnected-(U1-31_CTX3-Pad42)*%
X134620000Y-63500000D03*
%TO.P,U1,43,32_OUT1B*%
%TO.N,unconnected-(U1-32_OUT1B-Pad43)*%
X132080000Y-60960000D03*
%TO.P,U1,44,33_MCLK2*%
%TO.N,unconnected-(U1-33_MCLK2-Pad44)*%
X134620000Y-60960000D03*
%TD*%
D10*
%TO.P,J3,1,Pin_1*%
%TO.N,/GND*%
X160020000Y-58420000D03*
D11*
%TO.P,J3,2,Pin_2*%
%TO.N,/UP*%
X157480000Y-58420000D03*
%TO.P,J3,3,Pin_3*%
%TO.N,/DOWN*%
X154940000Y-58420000D03*
%TO.P,J3,4,Pin_4*%
%TO.N,/LEFT*%
X152400000Y-58420000D03*
%TO.P,J3,5,Pin_5*%
%TO.N,/RIGHT*%
X149860000Y-58420000D03*
%TO.P,J3,6,Pin_6*%
%TO.N,/HOME*%
X147320000Y-58420000D03*
%TO.P,J3,7,Pin_7*%
%TO.N,/BACK*%
X144780000Y-58420000D03*
%TO.P,J3,8,Pin_8*%
%TO.N,/START*%
X142240000Y-58420000D03*
%TO.P,J3,9,Pin_9*%
%TO.N,/X*%
X139700000Y-58420000D03*
%TO.P,J3,10,Pin_10*%
%TO.N,/Y*%
X137160000Y-58420000D03*
%TO.P,J3,11,Pin_11*%
%TO.N,/RB*%
X134620000Y-58420000D03*
%TO.P,J3,12,Pin_12*%
%TO.N,/LB*%
X132080000Y-58420000D03*
%TO.P,J3,13,Pin_13*%
%TO.N,/A*%
X129540000Y-58420000D03*
%TO.P,J3,14,Pin_14*%
%TO.N,/B*%
X127000000Y-58420000D03*
%TD*%
D12*
%TO.P,J10,1,Pin_1*%
%TO.N,/A*%
X98851600Y-48310800D03*
D13*
%TO.P,J10,2,Pin_2*%
%TO.N,/B*%
X95351600Y-48310800D03*
%TO.P,J10,3,Pin_3*%
%TO.N,/RT*%
X91851600Y-48310800D03*
%TO.P,J10,4,Pin_4*%
%TO.N,/LT*%
X88351600Y-48310800D03*
%TO.P,J10,5,Pin_5*%
%TO.N,/GND*%
X84851600Y-48310800D03*
%TD*%
D10*
%TO.P,J6,1,Pin_1*%
%TO.N,/UP*%
X106680000Y-81280000D03*
D11*
%TO.P,J6,2,Pin_2*%
%TO.N,/DOWN*%
X106680000Y-83820000D03*
%TO.P,J6,3,Pin_3*%
%TO.N,/RIGHT*%
X104140000Y-81280000D03*
%TO.P,J6,4,Pin_4*%
%TO.N,/LEFT*%
X104140000Y-83820000D03*
%TO.P,J6,5,Pin_5*%
%TO.N,/BACK*%
X101600000Y-81280000D03*
%TO.P,J6,6,Pin_6*%
%TO.N,/HOME*%
X101600000Y-83820000D03*
%TO.P,J6,7,Pin_7*%
%TO.N,/START*%
X99060000Y-81280000D03*
%TO.P,J6,8,Pin_8*%
%TO.N,/X*%
X99060000Y-83820000D03*
%TO.P,J6,9,Pin_9*%
%TO.N,/Y*%
X96520000Y-81280000D03*
%TO.P,J6,10,Pin_10*%
%TO.N,/RB*%
X96520000Y-83820000D03*
%TO.P,J6,11,Pin_11*%
%TO.N,/LB*%
X93980000Y-81280000D03*
%TO.P,J6,12,Pin_12*%
%TO.N,/GND*%
X93980000Y-83820000D03*
%TO.P,J6,13,Pin_13*%
%TO.N,/A*%
X91440000Y-81280000D03*
%TO.P,J6,14,Pin_14*%
%TO.N,/B*%
X91440000Y-83820000D03*
%TO.P,J6,15,Pin_15*%
%TO.N,/RT*%
X88900000Y-81280000D03*
%TO.P,J6,16,Pin_16*%
%TO.N,/LT*%
X88900000Y-83820000D03*
%TO.P,J6,17,Pin_17*%
%TO.N,/GND*%
X86360000Y-81280000D03*
%TO.P,J6,18,Pin_18*%
X86360000Y-83820000D03*
%TO.P,J6,19,Pin_19*%
%TO.N,/5V*%
X83820000Y-81280000D03*
%TO.P,J6,20,Pin_20*%
X83820000Y-83820000D03*
%TD*%
D12*
%TO.P,J9,1,Pin_1*%
%TO.N,/X*%
X116840000Y-48260000D03*
D13*
%TO.P,J9,2,Pin_2*%
%TO.N,/Y*%
X113340000Y-48260000D03*
%TO.P,J9,3,Pin_3*%
%TO.N,/RB*%
X109840000Y-48260000D03*
%TO.P,J9,4,Pin_4*%
%TO.N,/LB*%
X106340000Y-48260000D03*
%TO.P,J9,5,Pin_5*%
%TO.N,/GND*%
X102840000Y-48260000D03*
%TD*%
D12*
%TO.P,J2,1,Pin_1*%
%TO.N,unconnected-(J2-Pin_1-Pad1)*%
X133660000Y-81280000D03*
D13*
%TO.P,J2,2,Pin_2*%
%TO.N,/L3*%
X137160000Y-81280000D03*
%TO.P,J2,3,Pin_3*%
%TO.N,/R3*%
X140660000Y-81280000D03*
%TO.P,J2,4,Pin_4*%
%TO.N,/GND*%
X144160000Y-81280000D03*
%TD*%
D15*
%TO.P,J1,1,Pin_1*%
%TO.N,unconnected-(J1-Pin_1-Pad1)*%
X73660000Y-59500000D03*
D16*
%TO.P,J1,2,Pin_2*%
%TO.N,/L3*%
X73660000Y-61500000D03*
%TO.P,J1,3,Pin_3*%
%TO.N,/R3*%
X73660000Y-63500000D03*
%TO.P,J1,4,Pin_4*%
%TO.N,/GND*%
X73660000Y-65500000D03*
%TD*%
D12*
%TO.P,J7,1,Pin_1*%
%TO.N,/5V*%
X152400000Y-48260000D03*
D13*
%TO.P,J7,2,Pin_2*%
%TO.N,/DOWN*%
X148900000Y-48260000D03*
%TO.P,J7,3,Pin_3*%
%TO.N,/UP*%
X145400000Y-48260000D03*
%TO.P,J7,4,Pin_4*%
%TO.N,/LEFT*%
X141900000Y-48260000D03*
%TO.P,J7,5,Pin_5*%
%TO.N,/RIGHT*%
X138400000Y-48260000D03*
%TD*%
D17*
%TO.N,/L3*%
X137160000Y-76200000D02*
X139700000Y-73660000D01*
X137160000Y-81280000D02*
X137160000Y-76200000D01*
%TO.N,/R3*%
X140660000Y-75240000D02*
X142240000Y-73660000D01*
X140660000Y-81280000D02*
X140660000Y-75240000D01*
%TO.N,/GND*%
X159720900Y-52786100D02*
X152785400Y-45850600D01*
X134000000Y-48260000D02*
X135476900Y-48260000D01*
X86360000Y-79126900D02*
X86360000Y-81280000D01*
X73660000Y-66426900D02*
X86360000Y-79126900D01*
X159720900Y-58420000D02*
X159720900Y-52786100D01*
X144160000Y-81280000D02*
X148590000Y-76850000D01*
X148590000Y-76850000D02*
X148590000Y-69550900D01*
X73660000Y-65963400D02*
X73660000Y-66426900D01*
X85060000Y-54563400D02*
X85060000Y-48260000D01*
X73660000Y-65963400D02*
X85060000Y-54563400D01*
X73660000Y-65500000D02*
X73660000Y-65963400D01*
X137886300Y-45850600D02*
X135476900Y-48260000D01*
X148590000Y-69550900D02*
X159720900Y-58420000D01*
X159720900Y-58420000D02*
X160020000Y-58420000D01*
X152785400Y-45850600D02*
X137886300Y-45850600D01*
%TO.N,/UP*%
X106680000Y-77073200D02*
X130961500Y-52791700D01*
X106680000Y-80103100D02*
X106680000Y-77073200D01*
X140868300Y-52791700D02*
X145400000Y-48260000D01*
X106680000Y-81280000D02*
X106680000Y-80103100D01*
X130961500Y-52791700D02*
X140868300Y-52791700D01*
%TO.N,/DOWN*%
X146026100Y-58801600D02*
X146026100Y-57241600D01*
X106680000Y-82643100D02*
X107489200Y-82643100D01*
X106680000Y-83820000D02*
X106680000Y-82643100D01*
X146026100Y-51133900D02*
X148900000Y-48260000D01*
X127395900Y-62230000D02*
X130810000Y-58815900D01*
X146026100Y-57241600D02*
X146026100Y-51133900D01*
X131500400Y-57241600D02*
X146026100Y-57241600D01*
X130810000Y-58815900D02*
X130810000Y-57932000D01*
X153201000Y-60159000D02*
X147383500Y-60159000D01*
X154940000Y-58420000D02*
X153201000Y-60159000D01*
X107856900Y-82275400D02*
X107856900Y-80996600D01*
X130810000Y-57932000D02*
X131500400Y-57241600D01*
X147383500Y-60159000D02*
X146026100Y-58801600D01*
X126623500Y-62230000D02*
X127395900Y-62230000D01*
X107489200Y-82643100D02*
X107856900Y-82275400D01*
X107856900Y-80996600D02*
X126623500Y-62230000D01*
%TO.N,/RIGHT*%
X140330700Y-46329300D02*
X149719300Y-46329300D01*
X150845000Y-47455000D02*
X150845000Y-57435000D01*
X134997200Y-51662800D02*
X130812200Y-51662800D01*
X138400000Y-48260000D02*
X134997200Y-51662800D01*
X130812200Y-51662800D02*
X104140000Y-78335000D01*
X138400000Y-48260000D02*
X140330700Y-46329300D01*
X150845000Y-57435000D02*
X149860000Y-58420000D01*
X149719300Y-46329300D02*
X150845000Y-47455000D01*
X104140000Y-78335000D02*
X104140000Y-81280000D01*
%TO.N,/LEFT*%
X149355600Y-59637700D02*
X148590000Y-58872100D01*
X151182300Y-59637700D02*
X149355600Y-59637700D01*
X138045300Y-52114700D02*
X130999400Y-52114700D01*
X150393100Y-47642200D02*
X149533600Y-46782700D01*
X143377300Y-46782700D02*
X141900000Y-48260000D01*
X148590000Y-55049200D02*
X150393100Y-53246100D01*
X150393100Y-53246100D02*
X150393100Y-47642200D01*
X152400000Y-58420000D02*
X151182300Y-59637700D01*
X105410100Y-81738800D02*
X104505800Y-82643100D01*
X148590000Y-58872100D02*
X148590000Y-55049200D01*
X141900000Y-48260000D02*
X138045300Y-52114700D01*
X149533600Y-46782700D02*
X143377300Y-46782700D01*
X130999400Y-52114700D02*
X105410100Y-77704000D01*
X104505800Y-82643100D02*
X104140000Y-82643100D01*
X104140000Y-83820000D02*
X104140000Y-82643100D01*
X105410100Y-77704000D02*
X105410100Y-81738800D01*
%TO.N,/BACK*%
X101600000Y-70160000D02*
X123500000Y-48260000D01*
X101600000Y-81280000D02*
X101600000Y-70160000D01*
%TO.N,/HOME*%
X101600000Y-82643100D02*
X101967900Y-82643100D01*
X102776900Y-81834100D02*
X102776900Y-72483100D01*
X101967900Y-82643100D02*
X102776900Y-81834100D01*
X102776900Y-72483100D02*
X127000000Y-48260000D01*
X101600000Y-83820000D02*
X101600000Y-82643100D01*
%TO.N,/START*%
X115249300Y-48850900D02*
X115249300Y-47042900D01*
X115509100Y-46783100D02*
X118523100Y-46783100D01*
X115249300Y-47042900D02*
X115509100Y-46783100D01*
X99060000Y-81280000D02*
X99060000Y-65040200D01*
X99060000Y-65040200D02*
X115249300Y-48850900D01*
X118523100Y-46783100D02*
X120000000Y-48260000D01*
%TO.N,/X*%
X100236900Y-66340000D02*
X116840000Y-49736900D01*
X99427900Y-82643100D02*
X100236900Y-81834100D01*
X99060000Y-82643100D02*
X99427900Y-82643100D01*
X116840000Y-48260000D02*
X116840000Y-49736900D01*
X100236900Y-81834100D02*
X100236900Y-66340000D01*
X99060000Y-83820000D02*
X99060000Y-82643100D01*
%TO.N,/Y*%
X109203900Y-46768900D02*
X111848900Y-46768900D01*
X111848900Y-46768900D02*
X113340000Y-48260000D01*
X108090100Y-47882700D02*
X109203900Y-46768900D01*
X96520000Y-60329600D02*
X108090100Y-48759500D01*
X108090100Y-48759500D02*
X108090100Y-47882700D01*
X96520000Y-81280000D02*
X96520000Y-60329600D01*
%TO.N,/RB*%
X96520000Y-83820000D02*
X96520000Y-82643100D01*
X97696900Y-81834100D02*
X97696900Y-60403100D01*
X96520000Y-82643100D02*
X96887900Y-82643100D01*
X97696900Y-60403100D02*
X109840000Y-48260000D01*
X96887900Y-82643100D02*
X97696900Y-81834100D01*
%TO.N,/LB*%
X93980000Y-81280000D02*
X93980000Y-60620000D01*
X93980000Y-60620000D02*
X106340000Y-48260000D01*
%TO.N,/A*%
X91440000Y-81280000D02*
X91440000Y-51129600D01*
X93810100Y-48759500D02*
X93810100Y-47882700D01*
X97583100Y-48167600D02*
X97583100Y-48260000D01*
X99060000Y-48260000D02*
X97583100Y-48260000D01*
X93810100Y-47882700D02*
X94909700Y-46783100D01*
X91440000Y-51129600D02*
X93810100Y-48759500D01*
X96198600Y-46783100D02*
X97583100Y-48167600D01*
X94909700Y-46783100D02*
X96198600Y-46783100D01*
%TO.N,/B*%
X91440000Y-83820000D02*
X91440000Y-82643100D01*
X91440000Y-82643100D02*
X91807900Y-82643100D01*
X92616900Y-81834100D02*
X92616900Y-51203100D01*
X91807900Y-82643100D02*
X92616900Y-81834100D01*
X92616900Y-51203100D02*
X95560000Y-48260000D01*
%TO.N,/RT*%
X88900000Y-81280000D02*
X88900000Y-51420000D01*
X88900000Y-51420000D02*
X92060000Y-48260000D01*
%TO.N,/LT*%
X87675100Y-49144900D02*
X88560000Y-48260000D01*
X87675100Y-81786000D02*
X87675100Y-49144900D01*
X88532200Y-82643100D02*
X87675100Y-81786000D01*
X88900000Y-82643100D02*
X88532200Y-82643100D01*
X88900000Y-83820000D02*
X88900000Y-82643100D01*
%TO.N,/5V*%
X122134300Y-72354600D02*
X109483600Y-85005300D01*
X156139600Y-58897100D02*
X142682100Y-72354600D01*
X109483600Y-85005300D02*
X85816400Y-85005300D01*
X84996900Y-84185800D02*
X84996900Y-83820000D01*
X142682100Y-72354600D02*
X122134300Y-72354600D01*
X83820000Y-83820000D02*
X83820000Y-81280000D01*
X156139600Y-53476500D02*
X156139600Y-58897100D01*
X152400000Y-48260000D02*
X152400000Y-49736900D01*
X83820000Y-83820000D02*
X84996900Y-83820000D01*
X85816400Y-85005300D02*
X84996900Y-84185800D01*
X152400000Y-49736900D02*
X156139600Y-53476500D01*
%TD*%
M02*
