M48
; DRILL file {KiCad 7.0.7} date Fri Aug 25 02:37:00 2023
; FORMAT={-:-/ absolute / metric / decimal}
; #@! TF.CreationDate,2023-08-25T02:37:00+09:00
; #@! TF.GenerationSoftware,Kicad,Pcbnew,7.0.7
; #@! TF.FileFunction,Plated,1,2,PTH
FMAT,2
METRIC
; #@! TA.AperFunction,Plated,PTH,ComponentDrill
T1C0.750
; #@! TA.AperFunction,Plated,PTH,ComponentDrill
T2C1.000
; #@! TA.AperFunction,Plated,PTH,ComponentDrill
T3C1.100
; #@! TA.AperFunction,Plated,PTH,ComponentDrill
T4C1.200
%
G90
G05
T1
X73.66Y-59.5
X73.66Y-61.5
X73.66Y-63.5
X73.66Y-65.5
T2
X83.82Y-81.28
X83.82Y-83.82
X86.36Y-81.28
X86.36Y-83.82
X88.9Y-81.28
X88.9Y-83.82
X91.44Y-81.28
X91.44Y-83.82
X93.98Y-81.28
X93.98Y-83.82
X96.52Y-81.28
X96.52Y-83.82
X99.06Y-81.28
X99.06Y-83.82
X101.6Y-81.28
X101.6Y-83.82
X104.14Y-81.28
X104.14Y-83.82
X106.68Y-81.28
X106.68Y-83.82
X127.0Y-58.42
X127.0Y-73.66
X129.54Y-58.42
X129.54Y-73.66
X132.08Y-58.42
X132.08Y-73.66
X134.62Y-58.42
X134.62Y-73.66
X137.16Y-58.42
X137.16Y-73.66
X139.7Y-58.42
X139.7Y-73.66
X142.24Y-58.42
X142.24Y-73.66
X144.78Y-58.42
X144.78Y-73.66
X147.32Y-58.42
X147.32Y-73.66
X149.86Y-58.42
X149.86Y-73.66
X152.4Y-58.42
X152.4Y-73.66
X154.94Y-58.42
X154.94Y-73.66
X157.48Y-58.42
X157.48Y-73.66
X160.02Y-58.42
X160.02Y-73.66
T3
X127.0Y-58.42
X127.0Y-60.96
X127.0Y-63.5
X127.0Y-66.04
X127.0Y-68.58
X127.0Y-71.12
X127.0Y-73.66
X129.54Y-58.42
X129.54Y-73.66
X132.08Y-58.42
X132.08Y-60.96
X132.08Y-63.5
X132.08Y-66.04
X132.08Y-68.58
X132.08Y-71.12
X132.08Y-73.66
X134.62Y-58.42
X134.62Y-60.96
X134.62Y-63.5
X134.62Y-66.04
X134.62Y-68.58
X134.62Y-71.12
X134.62Y-73.66
X137.16Y-58.42
X137.16Y-73.66
X139.7Y-58.42
X139.7Y-73.66
X142.24Y-58.42
X142.24Y-73.66
X144.78Y-58.42
X144.78Y-73.66
X147.32Y-58.42
X147.32Y-73.66
X149.86Y-58.42
X149.86Y-73.66
X152.4Y-58.42
X152.4Y-73.66
X154.94Y-58.42
X154.94Y-73.66
X157.48Y-58.42
X157.48Y-71.12
X157.48Y-73.66
X160.02Y-58.42
X160.02Y-73.66
T4
X84.852Y-48.311
X88.352Y-48.311
X91.852Y-48.311
X95.352Y-48.311
X98.852Y-48.311
X102.84Y-48.26
X106.34Y-48.26
X109.84Y-48.26
X113.34Y-48.26
X116.84Y-48.26
X120.666Y-48.209
X124.166Y-48.209
X127.666Y-48.209
X131.166Y-48.209
X133.66Y-81.28
X134.666Y-48.209
X137.16Y-81.28
X138.4Y-48.26
X140.66Y-81.28
X141.9Y-48.26
X144.16Y-81.28
X145.4Y-48.26
X148.9Y-48.26
X152.4Y-48.26
T0
M30
